<?xml version="1.0" standalone="no"?>
<!DOCTYPE svg PUBLIC "-//W3C//DTD SVG 20010904//EN"
 "http://www.w3.org/TR/2001/REC-SVG-20010904/DTD/svg10.dtd">
<svg version="1.0" xmlns="http://www.w3.org/2000/svg"
 width="600.000000pt" height="600.000000pt" viewBox="0 0 600.000000 600.000000"
 preserveAspectRatio="xMidYMid meet">
<metadata>
Created by potrace 1.11, written by Peter Selinger 2001-2013
</metadata>
<g transform="translate(0.000000,600.000000) scale(0.100000,-0.100000)"
fill="#000000" stroke="none">
<path d="M0 5955 l0 -45 70 0 c137 0 236 -36 307 -113 35 -38 42 -54 52 -113
9 -50 11 -445 9 -1454 l-3 -1385 -24 -53 c-47 -104 -143 -154 -324 -167 l-87
-7 0 -44 0 -44 840 0 840 0 0 -1049 c0 -1014 -1 -1051 -20 -1112 -41 -134
-114 -208 -252 -253 -54 -18 -99 -26 -148 -26 l-70 0 0 -45 0 -45 606 0 605 0
-3 43 -3 42 -85 6 c-153 11 -252 51 -327 132 -56 60 -81 112 -93 194 -7 45
-10 516 -8 1413 l3 1344 681 -1584 681 -1585 39 -3 39 -2 670 1596 670 1597 3
-1389 c2 -927 -1 -1412 -8 -1457 -13 -86 -38 -135 -91 -181 -61 -52 -123 -69
-269 -76 l-125 -5 -3 -42 -3 -43 915 0 916 0 0 45 0 45 -99 0 c-162 0 -282 51
-336 144 -44 75 -46 150 -43 1596 4 1529 -3 1410 87 1500 61 61 138 87 286 96
l105 7 0 44 0 43 -712 -2 -711 -3 -476 -1157 c-262 -636 -478 -1154 -480
-1152 -3 2 -226 523 -496 1157 l-491 1152 -677 3 -677 2 0 1023 c0 590 5 1053
10 1096 24 187 121 260 358 269 l122 4 0 44 0 44 -885 0 -885 0 0 -45z m1445
-2547 c101 -26 192 -99 216 -175 7 -24 13 -142 16 -325 l5 -288 -63 6 c-172
16 -285 86 -319 199 -13 43 -27 562 -16 590 5 14 16 15 63 10 32 -4 76 -11 98
-17z"/>
<path d="M2510 5733 c-170 -16 -353 -68 -484 -135 -111 -58 -230 -175 -276
-273 -39 -81 -50 -178 -30 -250 17 -62 78 -127 152 -164 55 -28 71 -31 153
-31 78 0 99 4 143 26 92 46 142 126 142 225 0 54 -24 108 -77 174 -74 94 -80
125 -33 178 51 59 118 81 240 82 120 0 156 -13 222 -82 58 -60 61 -75 65 -323
l4 -225 -197 -95 c-472 -227 -689 -375 -787 -537 -57 -94 -72 -153 -72 -278 0
-100 3 -115 28 -166 92 -188 282 -264 517 -207 119 29 295 125 435 239 33 27
65 48 70 47 6 -1 16 -24 22 -50 40 -155 150 -239 330 -254 188 -15 343 60 478
231 l56 70 -33 27 -33 27 -35 -34 c-63 -62 -127 -56 -158 13 -13 32 -16 123
-22 682 -7 698 -6 686 -63 783 -35 59 -125 148 -200 197 -127 83 -347 124
-557 103z m188 -1645 c-99 -82 -234 -111 -317 -69 -22 12 -55 40 -71 63 -129
178 1 430 338 654 l77 52 3 -337 2 -336 -32 -27z"/>
<path d="M5133 5726 c-131 -25 -267 -103 -398 -227 -40 -38 -75 -69 -79 -69
-3 0 -6 56 -6 125 l0 125 -407 -2 -408 -3 -3 -37 c-3 -34 -1 -38 25 -43 57
-13 118 -39 139 -60 48 -48 49 -59 49 -870 0 -587 -3 -770 -13 -802 -20 -65
-104 -123 -181 -123 -18 0 -21 -6 -21 -40 l0 -40 510 0 510 0 0 38 c0 37 -2
38 -46 50 -107 29 -132 75 -145 267 -4 72 -8 362 -9 645 l0 515 37 55 c89 133
199 210 301 210 95 0 161 -57 183 -157 19 -87 20 -1304 0 -1388 -17 -75 -66
-128 -134 -147 -45 -12 -47 -13 -47 -50 l0 -38 505 0 505 0 0 40 c0 31 -4 40
-17 40 -72 0 -150 54 -173 117 -10 30 -15 186 -20 703 -7 677 -10 730 -49 842
-50 144 -164 259 -307 308 -77 27 -208 33 -301 16z"/>
</g>
</svg>
